<?xml version="1.0" standalone="no"?>
<!DOCTYPE svg PUBLIC "-//W3C//DTD SVG 1.1//EN" "http://www.w3.org/Graphics/SVG/1.1/DTD/svg11.dtd" >
<svg xmlns="http://www.w3.org/2000/svg" xmlns:xlink="http://www.w3.org/1999/xlink" version="1.1">
<metadata>
Created by FontForge 20170924 at Sat Nov 28 15:04:00 2015
 By www-data
Copyright 2015 Adobe Systems Incorporated. All rights reserved.
</metadata>
<defs>
<font id="RedVelvet-Regular" horiz-adv-x="600" >
  <font-face 
    font-family="Red Velvet"
    font-weight="400"
    font-stretch="normal"
    units-per-em="1000"
    panose-1="0 0 5 0 0 0 0 0 0 0"
    ascent="800"
    descent="-200"
    x-height="567"
    cap-height="783"
    bbox="-175 -218 1583 1003"
    underline-thickness="50"
    underline-position="-100"
    unicode-range="U+0020-2212"
  />
<missing-glyph horiz-adv-x="500" 
d="M0 0v700h500v-700h-500zM250 395l170 255h-340zM280 350l170 -255v510zM80 50h340l-170 255zM50 605v-510l170 255z" />
    <glyph glyph-name=".notdef" horiz-adv-x="500" 
d="M0 0v700h500v-700h-500zM250 395l170 255h-340zM280 350l170 -255v510zM80 50h340l-170 255zM50 605v-510l170 255z" />
    <glyph glyph-name="A" unicode="A" horiz-adv-x="956" 
d="M926 0h-254v14h57l-155 360h-275l-130 -360h115v-14h-254v14h119l275 769h139l306 -769h57v-14zM434 763l-130 -374h265z" />
    <glyph glyph-name="Aacute" unicode="&#xc1;" horiz-adv-x="956" 
d="M429 809l56 166h133zM672 0v14h57l-155 360h-275l-130 -360h115v-14h-254v14h119l275 769h139l306 -769h57v-14h-254zM304 389h265l-135 374z" />
    <glyph glyph-name="Acaron" unicode="&#x1cd;" horiz-adv-x="956" 
d="M340 964l108 -115l109 115h20l-129 -137l-128 137h20zM672 0v14h57l-155 360h-275l-130 -360h115v-14h-254v14h119l275 769h139l306 -769h57v-14h-254zM304 389h265l-135 374z" />
    <glyph glyph-name="Acircumflex" unicode="&#xc2;" horiz-adv-x="956" 
d="M551 842l-108 115l-109 -115h-20l129 137l128 -137h-20zM672 0v14h57l-155 360h-275l-130 -360h115v-14h-254v14h119l275 769h139l306 -769h57v-14h-254zM304 389h265l-135 374z" />
    <glyph glyph-name="Adieresis" unicode="&#xc4;" horiz-adv-x="956" 
d="M353 828c-27 0 -53 26 -53 53c0 26 26 52 53 52c26 0 52 -26 52 -52c0 -27 -26 -53 -52 -53zM543 828c-27 0 -53 26 -53 53c0 26 26 52 53 52c26 0 52 -26 52 -52c0 -27 -26 -53 -52 -53zM672 0v14h57l-155 360h-275l-130 -360h115v-14h-254v14h119l275 769h139l306 -769
h57v-14h-254zM304 389h265l-135 374z" />
    <glyph glyph-name="Agrave" unicode="&#xc0;" horiz-adv-x="956" 
d="M412 994l56 -166l-189 166h133zM672 0v14h57l-155 360h-275l-130 -360h115v-14h-254v14h119l275 769h139l306 -769h57v-14h-254zM304 389h265l-135 374z" />
    <glyph glyph-name="Amacron" unicode="&#x100;" horiz-adv-x="956" 
d="M282 845h340v-14h-340v14zM672 0v14h57l-155 360h-275l-130 -360h115v-14h-254v14h119l275 769h139l306 -769h57v-14h-254zM304 389h265l-135 374z" />
    <glyph glyph-name="Atilde" unicode="&#xc3;" horiz-adv-x="956" 
d="M609 902c0 -2 -13 -50 -55 -67c-10 -3 -20 -5 -31 -5c-29 0 -56 11 -85 32c-39 24 -72 31 -98 21c-34 -14 -45 -54 -45 -55l-16 4c1 2 13 49 55 66c32 13 71 5 117 -25c41 -28 73 -32 97 -22c34 13 45 54 45 55zM672 0v14h57l-155 360h-275l-130 -360h115v-14h-254v14
h119l275 769h139l306 -769h57v-14h-254zM304 389h265l-135 374z" />
    <glyph glyph-name="B" unicode="B" horiz-adv-x="747" 
d="M366 783c234 0 289 -60 289 -206c0 -79 -71 -153 -198 -163c314 0 325 -414 5 -414h-412v16h62v753h-62v14h316zM395 432c145 0 148 333 -14 333h-140v-333h154zM414 16c185 0 172 397 -23 397h-150v-397h173z" />
    <glyph glyph-name="C" unicode="C" horiz-adv-x="780" 
d="M721 612c-66 95 -175 156 -298 156c-12 0 -24 0 -36 -2c-72 -41 -186 -192 -186 -377c0 -179 114 -331 186 -372c12 -2 24 -2 36 -2c120 0 227 59 294 150h19c-70 -100 -184 -165 -313 -165c-211 0 -383 175 -383 389c0 220 172 394 383 394c132 0 248 -67 317 -171h-19z
" />
    <glyph glyph-name="Ccedilla" unicode="&#xc7;" horiz-adv-x="780" 
d="M721 612c-66 95 -175 156 -298 156c-12 0 -24 0 -36 -2c-72 -41 -186 -192 -186 -377c0 -179 114 -331 186 -372c12 -2 24 -2 36 -2c120 0 227 59 294 150h19c-70 -100 -184 -165 -313 -165c-211 0 -383 175 -383 389c0 220 172 394 383 394c132 0 248 -67 317 -171h-19z
M397 -42c7 1 14 2 21 2c47 0 86 -39 86 -89c0 -48 -39 -88 -86 -88c-22 0 -43 9 -58 23v4c15 -14 35 -23 58 -23h8c16 9 32 44 32 84c0 42 -16 76 -32 85c-3 1 -5 1 -8 1c-23 0 -43 -9 -58 -24l40 67h22z" />
    <glyph glyph-name="D" unicode="D" horiz-adv-x="853" 
d="M401 783c270 0 412 -189 412 -387c0 -193 -147 -396 -405 -396h-358v17h63v748h-63v18h351zM242 17c166 0 270 -7 317 45c122 132 123 546 13 649c-80 75 -192 54 -330 54v-748z" />
    <glyph glyph-name="E" unicode="E" horiz-adv-x="652" 
d="M577 593c0 0 -15 141 -101 176h-235v-368h156c43 21 51 99 51 99h4v-213h-4s-8 79 -51 100h-156v-373h259c82 37 97 175 97 175h5v-189h-552v14h62v755h-62v14h532v-190h-5z" />
    <glyph glyph-name="Eacute" unicode="&#xc9;" horiz-adv-x="652" 
d="M305 831l56 166h133zM577 593c0 0 -15 141 -101 176h-235v-368h156c43 21 51 99 51 99h4v-213h-4s-8 79 -51 100h-156v-373h259c82 37 97 175 97 175h5v-189h-552v14h62v755h-62v14h532v-190h-5z" />
    <glyph glyph-name="Ecaron" unicode="&#x11a;" horiz-adv-x="652" 
d="M240 965l108 -115l109 115h20l-129 -137l-128 137h20zM577 593c0 0 -15 141 -101 176h-235v-368h156c43 21 51 99 51 99h4v-213h-4s-8 79 -51 100h-156v-373h259c82 37 97 175 97 175h5v-189h-552v14h62v755h-62v14h532v-190h-5z" />
    <glyph glyph-name="Ecircumflex" unicode="&#xca;" horiz-adv-x="652" 
d="M457 829l-108 115l-109 -115h-20l129 137l128 -137h-20zM577 593c0 0 -15 141 -101 176h-235v-368h156c43 21 51 99 51 99h4v-213h-4s-8 79 -51 100h-156v-373h259c82 37 97 175 97 175h5v-189h-552v14h62v755h-62v14h532v-190h-5z" />
    <glyph glyph-name="Edieresis" unicode="&#xcb;" horiz-adv-x="652" 
d="M233 827c-27 0 -53 26 -53 53c0 26 26 52 53 52c26 0 52 -26 52 -52c0 -27 -26 -53 -52 -53zM423 827c-27 0 -53 26 -53 53c0 26 26 52 53 52c26 0 52 -26 52 -52c0 -27 -26 -53 -52 -53zM577 593c0 0 -15 141 -101 176h-235v-368h156c43 21 51 99 51 99h4v-213h-4
s-8 79 -51 100h-156v-373h259c82 37 97 175 97 175h5v-189h-552v14h62v755h-62v14h532v-190h-5z" />
    <glyph glyph-name="Egrave" unicode="&#xc8;" horiz-adv-x="652" 
d="M326 993l56 -166l-189 166h133zM577 593c0 0 -15 141 -101 176h-235v-368h156c43 21 51 99 51 99h4v-213h-4s-8 79 -51 100h-156v-373h259c82 37 97 175 97 175h5v-189h-552v14h62v755h-62v14h532v-190h-5z" />
    <glyph glyph-name="Emacron" unicode="&#x112;" horiz-adv-x="652" 
d="M154 844h340v-14h-340v14zM577 593c0 0 -15 141 -101 176h-235v-368h156c43 21 51 99 51 99h4v-213h-4s-8 79 -51 100h-156v-373h259c82 37 97 175 97 175h5v-189h-552v14h62v755h-62v14h532v-190h-5z" />
    <glyph glyph-name="Etilde" unicode="&#x1ebc;" horiz-adv-x="652" 
d="M465 901c0 -2 -13 -50 -55 -67c-10 -3 -20 -5 -31 -5c-29 0 -56 11 -85 32c-39 24 -72 31 -98 21c-34 -14 -45 -54 -45 -55l-16 4c1 2 13 49 55 66c32 13 71 5 117 -25c41 -28 73 -32 97 -22c34 13 45 54 45 55zM577 593c0 0 -15 141 -101 176h-235v-368h156
c43 21 51 99 51 99h4v-213h-4s-8 79 -51 100h-156v-373h259c82 37 97 175 97 175h5v-189h-552v14h62v755h-62v14h532v-190h-5z" />
    <glyph glyph-name="F" unicode="F" horiz-adv-x="638" 
d="M588 595h-5s-15 139 -101 174h-242v-371h141c20 8 32 27 39 46c10 26 13 53 13 53h6v-211h-6s-3 26 -13 52c-7 18 -19 38 -39 46h-141v-370h64v-14h-254v14h62v755h-62v14h538v-188z" />
    <glyph glyph-name="G" unicode="G" horiz-adv-x="864" 
d="M759 389v-390h-129v90c-66 -54 -106 -89 -197 -89c-211 0 -383 175 -383 389c0 220 172 394 383 394c132 0 248 -67 317 -171h-19c-66 95 -175 156 -298 156c-12 0 -24 0 -36 -2c-72 -41 -186 -192 -186 -377c0 -179 114 -331 186 -372c12 -2 24 -2 36 -2
c92 0 133 37 197 94v280h-70v14h254v-14h-55z" />
    <glyph glyph-name="H" unicode="H" horiz-adv-x="837" 
d="M787 0h-254v14h63v434h-348v-434h56v-14h-254v14h69v755h-61v14h254v-14h-64v-307h348v307h-64v14h254v-14h-61v-755h62v-14z" />
    <glyph glyph-name="I" unicode="I" horiz-adv-x="354" 
d="M242 14h62v-14h-254v14h63v755h-63v14h254v-14h-62v-755z" />
    <glyph glyph-name="Iacute" unicode="&#xcd;" horiz-adv-x="354" 
d="M161 830l56 166h133zM304 14v-14h-254v14h63v755h-63v14h254v-14h-62v-755h62z" />
    <glyph glyph-name="Icaron" unicode="&#x1cf;" horiz-adv-x="354" 
d="M68 963l108 -115l109 115h20l-129 -137l-128 137h20zM304 14v-14h-254v14h63v755h-63v14h254v-14h-62v-755h62z" />
    <glyph glyph-name="Icircumflex" unicode="&#xce;" horiz-adv-x="354" 
d="M289 827l-108 115l-109 -115h-20l129 137l128 -137h-20zM304 14v-14h-254v14h63v755h-63v14h254v-14h-62v-755h62z" />
    <glyph glyph-name="Idieresis" unicode="&#xcf;" horiz-adv-x="354" 
d="M91 827c-27 0 -53 26 -53 53c0 26 26 52 53 52c26 0 52 -26 52 -52c0 -27 -26 -53 -52 -53zM281 827c-27 0 -53 26 -53 53c0 26 26 52 53 52c26 0 52 -26 52 -52c0 -27 -26 -53 -52 -53zM304 14v-14h-254v14h63v755h-63v14h254v-14h-62v-755h62z" />
    <glyph glyph-name="Igrave" unicode="&#xcc;" horiz-adv-x="354" 
d="M152 991l56 -166l-189 166h133zM304 14v-14h-254v14h63v755h-63v14h254v-14h-62v-755h62z" />
    <glyph glyph-name="Imacron" unicode="&#x12a;" horiz-adv-x="354" 
d="M13 844h340v-14h-340v14zM304 14v-14h-254v14h63v755h-63v14h254v-14h-62v-755h62z" />
    <glyph glyph-name="J" unicode="J" horiz-adv-x="397" 
d="M295 769v-661s-3 -121 -166 -106c-76 4 -89 95 -89 96l9 1s3 -22 14 -43c14 -28 35 -44 62 -45c0 0 33 -2 33 57v701h-65v14h254v-14h-52z" />
    <glyph glyph-name="K" unicode="K" horiz-adv-x="892" 
d="M862 0h-254v14h55l-301 506l-117 -101v-405h59v-14h-254v14h65v755h-65v14h254v-14h-61v-326l391 326h-119v14h254v-14h-113l-191 -164l347 -591h50v-14z" />
    <glyph glyph-name="L" unicode="L" horiz-adv-x="767" 
d="M717 0h-667v14h61v755h-61v14h253v-14h-63v-755h373c84 37 99 175 99 175h5v-189z" />
    <glyph glyph-name="M" unicode="M" horiz-adv-x="919" 
d="M821 14h48v-14h-232v14h57v745l-185 -714h-121l-231 723v-754h113v-14h-220v14h96v756h-96v13h230l219 -732l190 732h180v-14h-48v-755z" />
    <glyph glyph-name="N" unicode="N" horiz-adv-x="873" 
d="M823 769h-89v-769h-134l-432 769v-755h123v-14h-241v14h104v755h-104v14h255l415 -756v742h-93v14h196v-14z" />
    <glyph glyph-name="Ntilde" unicode="&#xd1;" horiz-adv-x="873" 
d="M607 903c0 -2 -13 -50 -55 -67c-10 -3 -20 -5 -31 -5c-29 0 -56 11 -85 32c-39 24 -72 31 -98 21c-34 -14 -45 -54 -45 -55l-16 4c1 2 13 49 55 66c32 13 71 5 117 -25c41 -28 73 -32 97 -22c34 13 45 54 45 55zM734 769v-769h-134l-432 769v-755h123v-14h-241v14h104
v755h-104v14h255l415 -756v742h-93v14h196v-14h-89z" />
    <glyph glyph-name="O" unicode="O" horiz-adv-x="830" 
d="M416 782c223 0 384 -182 384 -395s-161 -386 -384 -386c-225 0 -386 173 -386 386s161 395 386 395zM435 11c86 20 205 181 205 376s-119 364 -205 385h-19h-19c-86 -21 -207 -190 -207 -385s121 -356 207 -376h19h19z" />
    <glyph glyph-name="Oacute" unicode="&#xd3;" horiz-adv-x="830" 
d="M413 837l56 166h133zM416 782c223 0 384 -182 384 -395s-161 -386 -384 -386c-225 0 -386 173 -386 386s161 395 386 395zM416 11h19c86 20 205 181 205 376s-119 364 -205 385h-19h-19c-86 -21 -207 -190 -207 -385s121 -356 207 -376h19z" />
    <glyph glyph-name="Ocaron" unicode="&#x1d1;" horiz-adv-x="830" 
d="M322 966l108 -115l109 115h20l-129 -137l-128 137h20zM416 782c223 0 384 -182 384 -395s-161 -386 -384 -386c-225 0 -386 173 -386 386s161 395 386 395zM416 11h19c86 20 205 181 205 376s-119 364 -205 385h-19h-19c-86 -21 -207 -190 -207 -385s121 -356 207 -376
h19z" />
    <glyph glyph-name="Ocircumflex" unicode="&#xd4;" horiz-adv-x="830" 
d="M536 828l-108 115l-109 -115h-20l129 137l128 -137h-20zM416 782c223 0 384 -182 384 -395s-161 -386 -384 -386c-225 0 -386 173 -386 386s161 395 386 395zM416 11h19c86 20 205 181 205 376s-119 364 -205 385h-19h-19c-86 -21 -207 -190 -207 -385s121 -356 207 -376
h19z" />
    <glyph glyph-name="Odieresis" unicode="&#xd6;" horiz-adv-x="830" 
d="M336 831c-27 0 -53 26 -53 53c0 26 26 52 53 52c26 0 52 -26 52 -52c0 -27 -26 -53 -52 -53zM526 831c-27 0 -53 26 -53 53c0 26 26 52 53 52c26 0 52 -26 52 -52c0 -27 -26 -53 -52 -53zM416 782c223 0 384 -182 384 -395s-161 -386 -384 -386c-225 0 -386 173 -386 386
s161 395 386 395zM416 11h19c86 20 205 181 205 376s-119 364 -205 385h-19h-19c-86 -21 -207 -190 -207 -385s121 -356 207 -376h19z" />
    <glyph glyph-name="Ograve" unicode="&#xd2;" horiz-adv-x="830" 
d="M377 993l56 -166l-189 166h133zM416 782c223 0 384 -182 384 -395s-161 -386 -384 -386c-225 0 -386 173 -386 386s161 395 386 395zM416 11h19c86 20 205 181 205 376s-119 364 -205 385h-19h-19c-86 -21 -207 -190 -207 -385s121 -356 207 -376h19z" />
    <glyph glyph-name="Omacron" unicode="&#x14c;" horiz-adv-x="830" 
d="M258 844h340v-14h-340v14zM416 782c223 0 384 -182 384 -395s-161 -386 -384 -386c-225 0 -386 173 -386 386s161 395 386 395zM416 11h19c86 20 205 181 205 376s-119 364 -205 385h-19h-19c-86 -21 -207 -190 -207 -385s121 -356 207 -376h19z" />
    <glyph glyph-name="Otilde" unicode="&#xd5;" horiz-adv-x="830" 
d="M598 901c0 -2 -13 -50 -55 -67c-10 -3 -20 -5 -31 -5c-29 0 -56 11 -85 32c-39 24 -72 31 -98 21c-34 -14 -45 -54 -45 -55l-16 4c1 2 13 49 55 66c32 13 71 5 117 -25c41 -28 73 -32 97 -22c34 13 45 54 45 55zM416 782c223 0 384 -182 384 -395s-161 -386 -384 -386
c-225 0 -386 173 -386 386s161 395 386 395zM416 11h19c86 20 205 181 205 376s-119 364 -205 385h-19h-19c-86 -21 -207 -190 -207 -385s121 -356 207 -376h19z" />
    <glyph glyph-name="P" unicode="P" horiz-adv-x="732" 
d="M239 726c49 40 110 62 174 62c75 0 144 -30 197 -84c52 -54 82 -131 82 -207s-31 -146 -82 -201c-53 -57 -122 -87 -197 -87c-64 0 -125 22 -174 62v-257h63v-14h-252v14h61v755h-61v14h189v-57zM239 286c49 -42 110 -65 174 -65c9 0 18 0 27 1c53 30 92 144 92 275
s-39 248 -92 278c-9 1 -18 1 -27 1c-64 0 -125 -23 -174 -65v-425z" />
    <glyph glyph-name="Q" unicode="Q" horiz-adv-x="850" 
d="M460 -48c42 4 164 -2 192 -77c2 -9 6 -86 129 -60c-105 -44 -261 -30 -337 128l-93 -60l-5 8l202 129c-37 -12 -78 -19 -122 -19c-225 0 -386 173 -386 386s161 395 386 395c223 0 384 -182 384 -395c0 -150 -79 -280 -205 -344zM445 11c86 20 205 181 205 376
s-119 364 -205 385h-19h-19c-86 -21 -207 -190 -207 -385s121 -356 207 -376h19h19z" />
    <glyph glyph-name="R" unicode="R" horiz-adv-x="842" 
d="M792 142c0 -1 -13 -99 -86 -130l-4 -2c-65 -25 -197 -12 -198 228c0 54 8 114 -61 158h-202v-382h60v-14h-251v14h65v755h-65v14h395c155 0 222 -96 222 -188c0 -88 -38 -196 -175 -196c58 -17 169 -66 170 -228c0 -3 -16 -123 25 -153c30 7 55 28 72 62
c17 32 21 63 21 63zM447 410c32 27 60 104 60 185c0 83 -36 149 -72 174h-194v-359h206z" />
    <glyph glyph-name="S" unicode="S" horiz-adv-x="641" 
d="M563 537c0 0 -3 26 -12 58c-79 186 -250 206 -336 156c-216 -109 26 -232 132 -274c146 -46 250 -107 254 -251c1 -37 -10 -65 -16 -75c-134 -247 -415 -115 -415 -115c-78 42 -71 57 -109 -34v244h7s3 -26 12 -58c79 -186 260 -206 346 -156c224 108 -22 230 -131 275
c-140 38 -257 110 -255 250c-1 37 10 65 16 75c134 247 415 115 415 115c68 -42 61 -57 99 34v-244h-7z" />
    <glyph glyph-name="T" unicode="T" horiz-adv-x="738" 
d="M688 607h-4s-12 130 -89 162h-161v-755h48v-14h-226v14h49v755h-162c-77 -32 -89 -162 -89 -162h-4v176h638v-176z" />
    <glyph glyph-name="U" unicode="U" horiz-adv-x="837" 
d="M723 769v-755h64v-14h-192v182c-45 -106 -133 -178 -277 -180c-152 -2 -206 55 -206 243v524h-62v14h254v-14h-64v-633s12 -104 83 -120c150 2 240 92 272 213v540h-60v14h252v-14h-64z" />
    <glyph glyph-name="Uacute" unicode="&#xda;" horiz-adv-x="837" 
d="M394 832l56 166h133zM723 14h64v-14h-192v182c-45 -106 -133 -178 -277 -180c-152 -2 -206 55 -206 243v524h-62v14h254v-14h-64v-633s12 -104 83 -120c150 2 240 92 272 213v540h-60v14h252v-14h-64v-755z" />
    <glyph glyph-name="Ucaron" unicode="&#x1d3;" horiz-adv-x="837" 
d="M301 966l108 -115l109 115h20l-129 -137l-128 137h20zM723 14h64v-14h-192v182c-45 -106 -133 -178 -277 -180c-152 -2 -206 55 -206 243v524h-62v14h254v-14h-64v-633s12 -104 83 -120c150 2 240 92 272 213v540h-60v14h252v-14h-64v-755z" />
    <glyph glyph-name="Ucircumflex" unicode="&#xdb;" horiz-adv-x="837" 
d="M517 829l-108 115l-109 -115h-20l129 137l128 -137h-20zM723 14h64v-14h-192v182c-45 -106 -133 -178 -277 -180c-152 -2 -206 55 -206 243v524h-62v14h254v-14h-64v-633s12 -104 83 -120c150 2 240 92 272 213v540h-60v14h252v-14h-64v-755z" />
    <glyph glyph-name="Udieresis" unicode="&#xdc;" horiz-adv-x="837" 
d="M325 827c-27 0 -53 26 -53 53c0 26 26 52 53 52c26 0 52 -26 52 -52c0 -27 -26 -53 -52 -53zM515 827c-27 0 -53 26 -53 53c0 26 26 52 53 52c26 0 52 -26 52 -52c0 -27 -26 -53 -52 -53zM723 14h64v-14h-192v182c-45 -106 -133 -178 -277 -180c-152 -2 -206 55 -206 243
v524h-62v14h254v-14h-64v-633s12 -104 83 -120c150 2 240 92 272 213v540h-60v14h252v-14h-64v-755z" />
    <glyph glyph-name="Ugrave" unicode="&#xd9;" horiz-adv-x="837" 
d="M375 994l56 -166l-189 166h133zM723 14h64v-14h-192v182c-45 -106 -133 -178 -277 -180c-152 -2 -206 55 -206 243v524h-62v14h254v-14h-64v-633s12 -104 83 -120c150 2 240 92 272 213v540h-60v14h252v-14h-64v-755z" />
    <glyph glyph-name="Umacron" unicode="&#x16a;" horiz-adv-x="837" 
d="M247 845h340v-14h-340v14zM723 14h64v-14h-192v182c-45 -106 -133 -178 -277 -180c-152 -2 -206 55 -206 243v524h-62v14h254v-14h-64v-633s12 -104 83 -120c150 2 240 92 272 213v540h-60v14h252v-14h-64v-755z" />
    <glyph glyph-name="Utilde" unicode="&#x168;" horiz-adv-x="837" 
d="M576 899c0 -2 -13 -50 -55 -67c-10 -3 -20 -5 -31 -5c-29 0 -56 11 -85 32c-39 24 -72 31 -98 21c-34 -14 -45 -54 -45 -55l-16 4c1 2 13 49 55 66c32 13 71 5 117 -25c41 -28 73 -32 97 -22c34 13 45 54 45 55zM723 14h64v-14h-192v182c-45 -106 -133 -178 -277 -180
c-152 -2 -206 55 -206 243v524h-62v14h254v-14h-64v-633s12 -104 83 -120c150 2 240 92 272 213v540h-60v14h252v-14h-64v-755z" />
    <glyph glyph-name="V" unicode="V" horiz-adv-x="966" 
d="M936 783v-14h-124l-273 -769h-139l-304 769h-66v14h254v-14h-50l142 -358c3 -5 5 -10 6 -16l149 -375l264 749h-119v14h260z" />
    <glyph glyph-name="W" unicode="W" horiz-adv-x="1366" 
d="M1336 783v-15h-121l-290 -767v-1h-137l-131 356l-129 -355v-1h-140l-301 768h-57v15h254l-1 -15h-56l293 -747l129 357l-143 391h-55v14h254l-2 -15h-59l273 -746l281 746h-119v15h257z" />
    <glyph glyph-name="X" unicode="X" horiz-adv-x="878" 
d="M719 769l-223 -323l274 -432h55v-14h-275v14h58l-199 326l-244 -326h133v-14h-258v14h106l254 340l-280 415h-60v14h275v-14h-53l205 -309l213 309h-120v14h258l-1 -14h-118z" />
    <glyph glyph-name="Y" unicode="Y" horiz-adv-x="855" 
d="M489 14h56v-14h-254v14h70v272l-253 483h-68v14h254v-14h-54l239 -470l210 470h-128v14h254v-14h-110l-216 -482v-273z" />
    <glyph glyph-name="Ydieresis" unicode="&#x178;" horiz-adv-x="855" 
d="M339 830c-27 0 -53 26 -53 53c0 26 26 52 53 52c26 0 52 -26 52 -52c0 -27 -26 -53 -52 -53zM529 830c-27 0 -53 26 -53 53c0 26 26 52 53 52c26 0 52 -26 52 -52c0 -27 -26 -53 -52 -53zM545 14v-14h-254v14h70v272l-253 483h-68v14h254v-14h-54l239 -470l210 470h-128
v14h254v-14h-110l-216 -482v-273h56z" />
    <glyph glyph-name="Z" unicode="Z" horiz-adv-x="736" 
d="M580 14c86 35 101 176 101 176h5v-190h-636l471 769h-367c-84 -37 -99 -175 -99 -175h-5v189h636l-472 -769h366z" />
    <glyph glyph-name="a" unicode="a" horiz-adv-x="621" 
d="M609 102c0 -77 -41 -110 -109 -110c-119 0 -123 50 -123 146c-21 -144 -212 -185 -311 -106c-54 43 -47 171 -15 198c81 86 326 80 326 80v6c0 42 1 79 1 111c-2 88 -17 137 -136 137c-47 0 -119 -21 -119 -50c0 -11 11 -25 36 -42c16 -12 27 -30 27 -49
c0 -31 -31 -62 -62 -62c-39 0 -67 40 -67 84c0 124 148 129 200 129c204 0 261 -98 261 -200c0 -59 -3 -121 -3 -215c0 -31 -10 -137 26 -137c68 0 56 80 57 80h11zM367 146c2 0 8 77 8 153c0 0 -188 -12 -188 -88c0 -6 -28 -171 33 -194c2 -3 100 -27 147 129z" />
    <glyph glyph-name="aacute" unicode="&#xe1;" horiz-adv-x="621" 
d="M281 632l56 166h133zM609 102c0 -77 -41 -110 -109 -110c-119 0 -123 50 -123 146c-21 -144 -212 -185 -311 -106c-54 43 -47 171 -15 198c81 86 326 80 326 80v6c0 42 1 79 1 111c-2 88 -17 137 -136 137c-47 0 -119 -21 -119 -50c0 -11 11 -25 36 -42
c16 -12 27 -30 27 -49c0 -31 -31 -62 -62 -62c-39 0 -67 40 -67 84c0 124 148 129 200 129c204 0 261 -98 261 -200c0 -59 -3 -121 -3 -215c0 -31 -10 -137 26 -137c68 0 56 80 57 80h11zM367 146c2 0 8 77 8 153c0 0 -188 -12 -188 -88c0 -6 -28 -171 33 -194
c2 -3 100 -27 147 129z" />
    <glyph glyph-name="acaron" unicode="&#x1ce;" horiz-adv-x="621" 
d="M171 766l108 -115l109 115h20l-129 -137l-128 137h20zM609 102c0 -77 -41 -110 -109 -110c-119 0 -123 50 -123 146c-21 -144 -212 -185 -311 -106c-54 43 -47 171 -15 198c81 86 326 80 326 80v6c0 42 1 79 1 111c-2 88 -17 137 -136 137c-47 0 -119 -21 -119 -50
c0 -11 11 -25 36 -42c16 -12 27 -30 27 -49c0 -31 -31 -62 -62 -62c-39 0 -67 40 -67 84c0 124 148 129 200 129c204 0 261 -98 261 -200c0 -59 -3 -121 -3 -215c0 -31 -10 -137 26 -137c68 0 56 80 57 80h11zM367 146c2 0 8 77 8 153c0 0 -188 -12 -188 -88
c0 -6 -28 -171 33 -194c2 -3 100 -27 147 129z" />
    <glyph glyph-name="acircumflex" unicode="&#xe2;" horiz-adv-x="621" 
d="M400 629l-108 115l-109 -115h-20l129 137l128 -137h-20zM609 102c0 -77 -41 -110 -109 -110c-119 0 -123 50 -123 146c-21 -144 -212 -185 -311 -106c-54 43 -47 171 -15 198c81 86 326 80 326 80v6c0 42 1 79 1 111c-2 88 -17 137 -136 137c-47 0 -119 -21 -119 -50
c0 -11 11 -25 36 -42c16 -12 27 -30 27 -49c0 -31 -31 -62 -62 -62c-39 0 -67 40 -67 84c0 124 148 129 200 129c204 0 261 -98 261 -200c0 -59 -3 -121 -3 -215c0 -31 -10 -137 26 -137c68 0 56 80 57 80h11zM367 146c2 0 8 77 8 153c0 0 -188 -12 -188 -88
c0 -6 -28 -171 33 -194c2 -3 100 -27 147 129z" />
    <glyph glyph-name="adieresis" unicode="&#xe4;" horiz-adv-x="621" 
d="M204 628c-27 0 -53 26 -53 53c0 26 26 52 53 52c26 0 52 -26 52 -52c0 -27 -26 -53 -52 -53zM394 628c-27 0 -53 26 -53 53c0 26 26 52 53 52c26 0 52 -26 52 -52c0 -27 -26 -53 -52 -53zM609 102c0 -77 -41 -110 -109 -110c-119 0 -123 50 -123 146
c-21 -144 -212 -185 -311 -106c-54 43 -47 171 -15 198c81 86 326 80 326 80v6c0 42 1 79 1 111c-2 88 -17 137 -136 137c-47 0 -119 -21 -119 -50c0 -11 11 -25 36 -42c16 -12 27 -30 27 -49c0 -31 -31 -62 -62 -62c-39 0 -67 40 -67 84c0 124 148 129 200 129
c204 0 261 -98 261 -200c0 -59 -3 -121 -3 -215c0 -31 -10 -137 26 -137c68 0 56 80 57 80h11zM367 146c2 0 8 77 8 153c0 0 -188 -12 -188 -88c0 -6 -28 -171 33 -194c2 -3 100 -27 147 129z" />
    <glyph glyph-name="agrave" unicode="&#xe0;" horiz-adv-x="621" 
d="M295 793l56 -166l-189 166h133zM609 102c0 -77 -41 -110 -109 -110c-119 0 -123 50 -123 146c-21 -144 -212 -185 -311 -106c-54 43 -47 171 -15 198c81 86 326 80 326 80v6c0 42 1 79 1 111c-2 88 -17 137 -136 137c-47 0 -119 -21 -119 -50c0 -11 11 -25 36 -42
c16 -12 27 -30 27 -49c0 -31 -31 -62 -62 -62c-39 0 -67 40 -67 84c0 124 148 129 200 129c204 0 261 -98 261 -200c0 -59 -3 -121 -3 -215c0 -31 -10 -137 26 -137c68 0 56 80 57 80h11zM367 146c2 0 8 77 8 153c0 0 -188 -12 -188 -88c0 -6 -28 -171 33 -194
c2 -3 100 -27 147 129z" />
    <glyph glyph-name="amacron" unicode="&#x101;" horiz-adv-x="621" 
d="M128 645h340v-14h-340v14zM609 102c0 -77 -41 -110 -109 -110c-119 0 -123 50 -123 146c-21 -144 -212 -185 -311 -106c-54 43 -47 171 -15 198c81 86 326 80 326 80v6c0 42 1 79 1 111c-2 88 -17 137 -136 137c-47 0 -119 -21 -119 -50c0 -11 11 -25 36 -42
c16 -12 27 -30 27 -49c0 -31 -31 -62 -62 -62c-39 0 -67 40 -67 84c0 124 148 129 200 129c204 0 261 -98 261 -200c0 -59 -3 -121 -3 -215c0 -31 -10 -137 26 -137c68 0 56 80 57 80h11zM367 146c2 0 8 77 8 153c0 0 -188 -12 -188 -88c0 -6 -28 -171 33 -194
c2 -3 100 -27 147 129z" />
    <glyph glyph-name="atilde" unicode="&#xe3;" horiz-adv-x="621" 
d="M456 702c0 -2 -13 -50 -55 -67c-10 -3 -20 -5 -31 -5c-29 0 -56 11 -85 32c-39 24 -72 31 -98 21c-34 -14 -45 -54 -45 -55l-16 4c1 2 13 49 55 66c32 13 71 5 117 -25c41 -28 73 -32 97 -22c34 13 45 54 45 55zM609 102c0 -77 -41 -110 -109 -110
c-119 0 -123 50 -123 146c-21 -144 -212 -185 -311 -106c-54 43 -47 171 -15 198c81 86 326 80 326 80v6c0 42 1 79 1 111c-2 88 -17 137 -136 137c-47 0 -119 -21 -119 -50c0 -11 11 -25 36 -42c16 -12 27 -30 27 -49c0 -31 -31 -62 -62 -62c-39 0 -67 40 -67 84
c0 124 148 129 200 129c204 0 261 -98 261 -200c0 -59 -3 -121 -3 -215c0 -31 -10 -137 26 -137c68 0 56 80 57 80h11zM367 146c2 0 8 77 8 153c0 0 -188 -12 -188 -88c0 -6 -28 -171 33 -194c2 -3 100 -27 147 129z" />
    <glyph glyph-name="b" unicode="b" horiz-adv-x="741" 
d="M248 511c49 40 110 63 174 63c75 0 144 -31 197 -88c51 -55 82 -125 82 -201s-30 -153 -82 -207c-53 -54 -122 -84 -197 -84c-64 0 -125 22 -174 62v-56h-198v14h70v755h-70v14h257v-14h-59v-258zM248 71c49 -42 110 -65 174 -65c9 0 18 0 27 1c53 30 92 147 92 278
s-39 246 -92 276c-9 1 -18 1 -27 1c-64 0 -125 -24 -174 -66v-425z" />
    <glyph glyph-name="c" unicode="c" horiz-adv-x="592" 
d="M320 11c88 0 166 43 215 109h14c-51 -73 -135 -121 -229 -121c-155 0 -280 128 -280 285c0 156 125 284 280 284c96 0 181 -50 232 -126h-14c-49 69 -128 115 -218 115l-27 -2c-52 -30 -92 -140 -92 -271c0 -132 40 -242 92 -273h27z" />
    <glyph glyph-name="ccedilla" unicode="&#xe7;" horiz-adv-x="592" 
d="M320 11c88 0 166 43 215 109h14c-51 -73 -135 -121 -229 -121h-10l-25 -41c7 1 14 2 21 2c47 0 86 -39 86 -89c0 -48 -39 -88 -86 -88c-22 0 -43 9 -58 23v4c15 -14 35 -23 58 -23h8c16 9 32 44 32 84c0 42 -16 76 -32 85c-3 1 -5 1 -8 1c-23 0 -43 -9 -58 -24l40 67h8
c-144 12 -256 135 -256 284c0 156 125 284 280 284c96 0 181 -50 232 -126h-14c-49 69 -128 115 -218 115l-27 -2c-52 -30 -92 -140 -92 -271c0 -132 40 -242 92 -273h27z" />
    <glyph glyph-name="d" unicode="d" horiz-adv-x="747" 
d="M697 0h-202v56c-49 -40 -110 -62 -174 -62c-75 0 -146 30 -199 84c-52 54 -82 131 -82 207s31 146 82 201c53 57 124 87 199 87c64 0 125 -22 174 -62v258h-55v14h257v-14h-54v-755h54v-14zM495 496c-49 42 -110 65 -174 65c-9 0 -18 0 -27 -1c-53 -30 -92 -144 -92 -275
s39 -248 92 -278c9 -1 18 -1 27 -1c64 0 125 23 174 65v425z" />
    <glyph glyph-name="e" unicode="e" horiz-adv-x="635" 
d="M569 153c-47 -92 -141 -155 -249 -155c-155 0 -280 127 -280 284s125 284 280 284c141 0 258 -107 275 -246h-395c-2 -172 34 -276 90 -309l30 -2c102 0 191 58 236 144h13zM439 331c-7 110 -42 195 -88 222c-11 1 -21 2 -31 2c-11 0 -21 -1 -30 -2
c-46 -27 -81 -113 -89 -222h238z" />
    <glyph glyph-name="eacute" unicode="&#xe9;" horiz-adv-x="635" 
d="M307 628l56 166h133zM569 153c-47 -92 -141 -155 -249 -155c-155 0 -280 127 -280 284s125 284 280 284c141 0 258 -107 275 -246h-395c-2 -172 34 -276 90 -309l30 -2c102 0 191 58 236 144h13zM439 331c-7 110 -42 195 -88 222c-11 1 -21 2 -31 2c-11 0 -21 -1 -30 -2
c-46 -27 -81 -113 -89 -222h238z" />
    <glyph glyph-name="ecaron" unicode="&#x11b;" horiz-adv-x="635" 
d="M220 766l108 -115l109 115h20l-129 -137l-128 137h20zM569 153c-47 -92 -141 -155 -249 -155c-155 0 -280 127 -280 284s125 284 280 284c141 0 258 -107 275 -246h-395c-2 -172 34 -276 90 -309l30 -2c102 0 191 58 236 144h13zM439 331c-7 110 -42 195 -88 222
c-11 1 -21 2 -31 2c-11 0 -21 -1 -30 -2c-46 -27 -81 -113 -89 -222h238z" />
    <glyph glyph-name="ecircumflex" unicode="&#xea;" horiz-adv-x="635" 
d="M448 632l-108 115l-109 -115h-20l129 137l128 -137h-20zM569 153c-47 -92 -141 -155 -249 -155c-155 0 -280 127 -280 284s125 284 280 284c141 0 258 -107 275 -246h-395c-2 -172 34 -276 90 -309l30 -2c102 0 191 58 236 144h13zM439 331c-7 110 -42 195 -88 222
c-11 1 -21 2 -31 2c-11 0 -21 -1 -30 -2c-46 -27 -81 -113 -89 -222h238z" />
    <glyph glyph-name="edieresis" unicode="&#xeb;" horiz-adv-x="635" 
d="M230 630c-27 0 -53 26 -53 53c0 26 26 52 53 52c26 0 52 -26 52 -52c0 -27 -26 -53 -52 -53zM420 630c-27 0 -53 26 -53 53c0 26 26 52 53 52c26 0 52 -26 52 -52c0 -27 -26 -53 -52 -53zM569 153c-47 -92 -141 -155 -249 -155c-155 0 -280 127 -280 284s125 284 280 284
c141 0 258 -107 275 -246h-395c-2 -172 34 -276 90 -309l30 -2c102 0 191 58 236 144h13zM439 331c-7 110 -42 195 -88 222c-11 1 -21 2 -31 2c-11 0 -21 -1 -30 -2c-46 -27 -81 -113 -89 -222h238z" />
    <glyph glyph-name="egrave" unicode="&#xe8;" horiz-adv-x="635" 
d="M300 799l56 -166l-189 166h133zM569 153c-47 -92 -141 -155 -249 -155c-155 0 -280 127 -280 284s125 284 280 284c141 0 258 -107 275 -246h-395c-2 -172 34 -276 90 -309l30 -2c102 0 191 58 236 144h13zM439 331c-7 110 -42 195 -88 222c-11 1 -21 2 -31 2
c-11 0 -21 -1 -30 -2c-46 -27 -81 -113 -89 -222h238z" />
    <glyph glyph-name="emacron" unicode="&#x113;" horiz-adv-x="635" 
d="M149 645h340v-14h-340v14zM569 153c-47 -92 -141 -155 -249 -155c-155 0 -280 127 -280 284s125 284 280 284c141 0 258 -107 275 -246h-395c-2 -172 34 -276 90 -309l30 -2c102 0 191 58 236 144h13zM439 331c-7 110 -42 195 -88 222c-11 1 -21 2 -31 2
c-11 0 -21 -1 -30 -2c-46 -27 -81 -113 -89 -222h238z" />
    <glyph glyph-name="f" unicode="f" horiz-adv-x="526" 
d="M149 474c0 205 101 307 244 307c50 0 123 -30 123 -110c0 -40 -25 -71 -61 -71c-31 0 -62 31 -62 62s31 62 62 62c3 0 7 0 10 -1c1 4 2 8 2 14c0 31 -48 35 -74 35c-102 0 -155 -34 -155 -147c1 -44 36 -143 39 -151h133v-14h-133v-446h63v-14h-254v14h63v446h-99v14h99z
" />
    <glyph glyph-name="g" unicode="g" horiz-adv-x="709" 
d="M319 77c44 0 80 26 80 59c0 51 -61 56 -104 56c-139 0 -251 82 -251 183c0 102 112 184 251 184c69 0 132 -21 178 -54c0 0 47 56 99 56c79 0 97 -73 97 -111c0 -31 -31 -62 -62 -62s-62 31 -62 62c0 49 64 55 64 81c0 12 -13 22 -36 22c-30 0 -52 -12 -93 -54
c7 -5 14 -11 20 -17c29 -30 47 -67 47 -107c0 -39 -18 -76 -47 -106c-36 -36 -90 -63 -152 -73c89 -4 158 -30 158 -60c0 -31 -72 -57 -164 -61c133 -11 235 -71 235 -144c0 -76 -111 -139 -252 -146c-16 -2 -31 -3 -47 -3c-153 0 -238 95 -238 183c0 84 25 119 94 119
c36 0 70 -21 70 -65c0 -25 -15 -48 -47 -48c-22 0 -47 12 -61 36c-8 14 -13 16 -22 16c-26 0 -22 -56 -22 -56c5 -81 76 -169 226 -175c18 -1 36 1 54 4c49 17 85 70 85 135c0 78 -53 142 -118 142v4h20zM295 200c56 0 107 66 107 175c0 111 -54 176 -107 176
c-54 0 -107 -69 -107 -176c0 -110 54 -175 107 -175z" />
    <glyph glyph-name="h" unicode="h" horiz-adv-x="747" 
d="M697 0h-254v14h68v454s-15 87 -66 87c-87 -2 -168 -67 -190 -154v-387h62v-14h-267v14h77v755h-72v14h254v-14h-54v-335c32 77 111 130 194 130c98 0 190 -75 191 -175v-375h57v-14z" />
    <glyph glyph-name="i" unicode="i" horiz-adv-x="357" 
d="M181 652c-34 0 -66 32 -66 66c0 33 32 65 66 65c33 0 65 -32 65 -65c0 -34 -32 -66 -65 -66zM307 0h-257v14h66v539h-66v14h257v-14h-63v-539h63v-14z" />
    <glyph glyph-name="dotlessi" unicode="&#x131;" horiz-adv-x="357" 
d="M307 0h-257v14h66v539h-66v14h257v-14h-63v-539h63v-14z" />
    <glyph glyph-name="iacute" unicode="&#xed;" horiz-adv-x="357" 
d="M164 628l56 166h133zM50 0v14h66v539h-66v14h257v-14h-63v-539h63v-14h-257z" />
    <glyph glyph-name="icaron" unicode="&#x1d0;" horiz-adv-x="357" 
d="M72 769l108 -115l109 115h20l-129 -137l-128 137h20zM50 0v14h66v539h-66v14h257v-14h-63v-539h63v-14h-257z" />
    <glyph glyph-name="icircumflex" unicode="&#xee;" horiz-adv-x="357" 
d="M288 630l-108 115l-109 -115h-20l129 137l128 -137h-20zM50 0v14h66v539h-66v14h257v-14h-63v-539h63v-14h-257z" />
    <glyph glyph-name="idieresis" unicode="&#xef;" horiz-adv-x="357" 
d="M83 629c-27 0 -53 26 -53 53c0 26 26 52 53 52c26 0 52 -26 52 -52c0 -27 -26 -53 -52 -53zM273 629c-27 0 -53 26 -53 53c0 26 26 52 53 52c26 0 52 -26 52 -52c0 -27 -26 -53 -52 -53zM50 0v14h66v539h-66v14h257v-14h-63v-539h63v-14h-257z" />
    <glyph glyph-name="igrave" unicode="&#xec;" horiz-adv-x="357" 
d="M142 795l56 -166l-189 166h133zM50 0v14h66v539h-66v14h257v-14h-63v-539h63v-14h-257z" />
    <glyph glyph-name="imacron" unicode="&#x12b;" horiz-adv-x="357" 
d="M14 645h340v-14h-340v14zM50 0v14h66v539h-66v14h257v-14h-63v-539h63v-14h-257z" />
    <glyph glyph-name="j" unicode="j" horiz-adv-x="393" 
d="M224 652c-34 0 -66 32 -66 66c0 33 32 65 66 65c33 0 65 -32 65 -65c0 -34 -32 -66 -65 -66zM288 -70c2 0 -1 -114 -154 -100c-72 4 -84 90 -84 91l8 1s3 -21 14 -41c13 -26 33 -41 58 -42c0 0 31 -2 31 53v661h-72v14h254v-14h-55v-623z" />
    <glyph glyph-name="k" unicode="k" horiz-adv-x="724" 
d="M694 0h-254v14h69l-206 304l-65 -70l-3 -234h68v-14h-253v14h61v722h-61v14h253v-14h-69l-5 -475l275 292h-127v14h254v-14h-107l-147 -156l254 -383h63v-14z" />
    <glyph glyph-name="l" unicode="l" horiz-adv-x="352" 
d="M243 14h59v-14h-252v14h65v755h-65v14h252v-14h-59v-755z" />
    <glyph glyph-name="m" unicode="m" horiz-adv-x="1099" 
d="M1049 0h-254v14h65v444s-10 82 -61 95c-90 -2 -165 -73 -185 -182v-357h57v-14h-254v14h69v444s-20 82 -71 95c-86 -2 -159 -73 -181 -169v-370h62v-14h-246v14h56v539h-56v14h184v-146c32 84 103 142 185 142c89 0 160 -67 188 -162c28 95 107 162 196 162
c97 0 166 -82 185 -192v-357h61v-14z" />
    <glyph glyph-name="n" unicode="n" horiz-adv-x="725" 
d="M675 0h-254v14h70v453s-2 82 -60 87c-86 -2 -163 -66 -186 -153v-387h56v-14h-251v14h67v539h-67v14h195v-133c32 77 108 130 190 130c99 0 184 -75 184 -175v-375h56v-14z" />
    <glyph glyph-name="ntilde" unicode="&#xf1;" horiz-adv-x="725" 
d="M534 705c0 -2 -13 -50 -55 -67c-10 -3 -20 -5 -31 -5c-29 0 -56 11 -85 32c-39 24 -72 31 -98 21c-34 -14 -45 -54 -45 -55l-16 4c1 2 13 49 55 66c32 13 71 5 117 -25c41 -28 73 -32 97 -22c34 13 45 54 45 55zM421 0v14h70v453s-2 82 -60 87c-86 -2 -163 -66 -186 -153
v-387h56v-14h-251v14h67v539h-67v14h195v-133c32 77 108 130 190 130c99 0 184 -75 184 -175v-375h56v-14h-254z" />
    <glyph glyph-name="o" unicode="o" horiz-adv-x="638" 
d="M598 282c0 -157 -122 -284 -279 -284c-155 0 -279 129 -279 284c0 159 126 285 279 285c159 0 279 -132 279 -285zM319 4c81 0 119 171 119 278c0 111 -40 279 -119 279c-81 0 -119 -166 -119 -279c0 -117 39 -278 119 -278z" />
    <glyph glyph-name="oacute" unicode="&#xf3;" horiz-adv-x="638" 
d="M310 627l56 166h133zM598 282c0 -157 -122 -284 -279 -284c-155 0 -279 129 -279 284c0 159 126 285 279 285c159 0 279 -132 279 -285zM319 4c81 0 119 171 119 278c0 111 -40 279 -119 279c-81 0 -119 -166 -119 -279c0 -117 39 -278 119 -278z" />
    <glyph glyph-name="ocaron" unicode="&#x1d2;" horiz-adv-x="638" 
d="M218 767l108 -115l109 115h20l-129 -137l-128 137h20zM598 282c0 -157 -122 -284 -279 -284c-155 0 -279 129 -279 284c0 159 126 285 279 285c159 0 279 -132 279 -285zM319 4c81 0 119 171 119 278c0 111 -40 279 -119 279c-81 0 -119 -166 -119 -279
c0 -117 39 -278 119 -278z" />
    <glyph glyph-name="ocircumflex" unicode="&#xf4;" horiz-adv-x="638" 
d="M434 632l-108 115l-109 -115h-20l129 137l128 -137h-20zM598 282c0 -157 -122 -284 -279 -284c-155 0 -279 129 -279 284c0 159 126 285 279 285c159 0 279 -132 279 -285zM319 4c81 0 119 171 119 278c0 111 -40 279 -119 279c-81 0 -119 -166 -119 -279
c0 -117 39 -278 119 -278z" />
    <glyph glyph-name="odieresis" unicode="&#xf6;" horiz-adv-x="638" 
d="M227 631c-27 0 -53 26 -53 53c0 26 26 52 53 52c26 0 52 -26 52 -52c0 -27 -26 -53 -52 -53zM417 631c-27 0 -53 26 -53 53c0 26 26 52 53 52c26 0 52 -26 52 -52c0 -27 -26 -53 -52 -53zM598 282c0 -157 -122 -284 -279 -284c-155 0 -279 129 -279 284
c0 159 126 285 279 285c159 0 279 -132 279 -285zM319 4c81 0 119 171 119 278c0 111 -40 279 -119 279c-81 0 -119 -166 -119 -279c0 -117 39 -278 119 -278z" />
    <glyph glyph-name="ograve" unicode="&#xf2;" horiz-adv-x="638" 
d="M324 796l56 -166l-189 166h133zM598 282c0 -157 -122 -284 -279 -284c-155 0 -279 129 -279 284c0 159 126 285 279 285c159 0 279 -132 279 -285zM319 4c81 0 119 171 119 278c0 111 -40 279 -119 279c-81 0 -119 -166 -119 -279c0 -117 39 -278 119 -278z" />
    <glyph glyph-name="omacron" unicode="&#x14d;" horiz-adv-x="638" 
d="M147 645h340v-14h-340v14zM598 282c0 -157 -122 -284 -279 -284c-155 0 -279 129 -279 284c0 159 126 285 279 285c159 0 279 -132 279 -285zM319 4c81 0 119 171 119 278c0 111 -40 279 -119 279c-81 0 -119 -166 -119 -279c0 -117 39 -278 119 -278z" />
    <glyph glyph-name="otilde" unicode="&#xf5;" horiz-adv-x="638" 
d="M484 702c0 -2 -13 -50 -55 -67c-10 -3 -20 -5 -31 -5c-29 0 -56 11 -85 32c-39 24 -72 31 -98 21c-34 -14 -45 -54 -45 -55l-16 4c1 2 13 49 55 66c32 13 71 5 117 -25c41 -28 73 -32 97 -22c34 13 45 54 45 55zM598 282c0 -157 -122 -284 -279 -284
c-155 0 -279 129 -279 284c0 159 126 285 279 285c159 0 279 -132 279 -285zM319 4c81 0 119 171 119 278c0 111 -40 279 -119 279c-81 0 -119 -166 -119 -279c0 -117 39 -278 119 -278z" />
    <glyph glyph-name="p" unicode="p" horiz-adv-x="730" 
d="M237 509c49 40 110 62 174 62c75 0 144 -30 197 -84c52 -54 82 -131 82 -207s-31 -146 -82 -201c-53 -57 -122 -87 -197 -87c-64 0 -125 22 -174 62v-258h61v-14h-248v14h59v757h-59v14h187v-58zM237 69c49 -42 110 -65 174 -65c9 0 18 0 27 1c53 30 92 144 92 275
s-39 248 -92 278c-9 1 -18 1 -27 1c-64 0 -125 -23 -174 -65v-425z" />
    <glyph glyph-name="q" unicode="q" horiz-adv-x="726" 
d="M676 -218h-249v14h66v258c-49 -40 -110 -62 -174 -62c-75 0 -144 30 -197 87c-51 55 -82 125 -82 201s30 153 82 207c53 54 122 84 197 84c64 0 125 -22 174 -62v58h183v-14h-55v-757h55v-14zM493 494c-49 42 -110 65 -174 65c-9 0 -18 0 -27 -1
c-53 -30 -92 -147 -92 -278s39 -245 92 -275c9 -1 18 -1 27 -1c64 0 125 23 174 65v425z" />
    <glyph glyph-name="r" unicode="r" horiz-adv-x="563" 
d="M246 430c31 91 96 159 202 133c0 0 65 -12 65 -110c0 -31 -32 -63 -63 -63s-63 32 -63 63c0 55 58 41 58 82c0 0 -3 18 -21 23c0 0 -49 14 -102 -26c-2 -3 -47 -37 -66 -106l-10 -33v-379h59v-14h-255v14h68v539h-68v14h196v-137z" />
    <glyph glyph-name="s" unicode="s" horiz-adv-x="509" 
d="M71 180c0 0 3 -22 9 -46c59 -135 194 -149 257 -111c153 80 -26 166 -109 198c-100 27 -175 84 -178 182c-1 29 8 48 12 55c96 180 299 83 299 83c60 -28 55 -40 82 27v-181h-5s-3 22 -9 46c-59 135 -194 149 -257 111c-151 -78 22 -165 108 -199
c94 -26 180 -87 179 -181c1 -29 -8 -48 -12 -55c-96 -180 -299 -83 -299 -83c-60 28 -55 40 -82 -27v181h5z" />
    <glyph glyph-name="scaron" unicode="&#x161;" horiz-adv-x="509" 
d="M171 764l108 -115l109 115h20l-129 -137l-128 137h20zM71 180c0 0 3 -22 9 -46c59 -135 194 -149 257 -111c153 80 -26 166 -109 198c-100 27 -175 84 -178 182c-1 29 8 48 12 55c96 180 299 83 299 83c60 -28 55 -40 82 27v-181h-5s-3 22 -9 46
c-59 135 -194 149 -257 111c-151 -78 22 -165 108 -199c94 -26 180 -87 179 -181c1 -29 -8 -48 -12 -55c-96 -180 -299 -83 -299 -83c-60 28 -55 40 -82 -27v181h5z" />
    <glyph glyph-name="t" unicode="t" horiz-adv-x="510" 
d="M460 140c0 -1 -18 -134 -128 -140c-205 -21 -171 154 -171 154v379h-111v14h111v56c101 30 127 142 127 142v-198h166v-14h-164v-438c0 -84 48 -81 48 -81c38 2 69 24 89 64c17 32 21 63 21 63z" />
    <glyph glyph-name="u" unicode="u" horiz-adv-x="737" 
d="M634 14h53v-14h-181v133c-32 -77 -113 -130 -195 -130c-99 0 -194 75 -194 175v375h-67v14h254v-14h-59v-453s12 -82 70 -87c86 2 168 66 191 153v387h-63v14h244v-14h-53v-539z" />
    <glyph glyph-name="uacute" unicode="&#xfa;" horiz-adv-x="737" 
d="M329 627l56 166h133zM687 14v-14h-181v133c-32 -77 -113 -130 -195 -130c-99 0 -194 75 -194 175v375h-67v14h254v-14h-59v-453s12 -82 70 -87c86 2 168 66 191 153v387h-63v14h244v-14h-53v-539h53z" />
    <glyph glyph-name="ucaron" unicode="&#x1d4;" horiz-adv-x="737" 
d="M272 767l108 -115l109 115h20l-129 -137l-128 137h20zM687 14v-14h-181v133c-32 -77 -113 -130 -195 -130c-99 0 -194 75 -194 175v375h-67v14h254v-14h-59v-453s12 -82 70 -87c86 2 168 66 191 153v387h-63v14h244v-14h-53v-539h53z" />
    <glyph glyph-name="ucircumflex" unicode="&#xfb;" horiz-adv-x="737" 
d="M480 632l-108 115l-109 -115h-20l129 137l128 -137h-20zM687 14v-14h-181v133c-32 -77 -113 -130 -195 -130c-99 0 -194 75 -194 175v375h-67v14h254v-14h-59v-453s12 -82 70 -87c86 2 168 66 191 153v387h-63v14h244v-14h-53v-539h53z" />
    <glyph glyph-name="udieresis" unicode="&#xfc;" horiz-adv-x="737" 
d="M279 629c-27 0 -53 26 -53 53c0 26 26 52 53 52c26 0 52 -26 52 -52c0 -27 -26 -53 -52 -53zM469 629c-27 0 -53 26 -53 53c0 26 26 52 53 52c26 0 52 -26 52 -52c0 -27 -26 -53 -52 -53zM687 14v-14h-181v133c-32 -77 -113 -130 -195 -130c-99 0 -194 75 -194 175v375
h-67v14h254v-14h-59v-453s12 -82 70 -87c86 2 168 66 191 153v387h-63v14h244v-14h-53v-539h53z" />
    <glyph glyph-name="ugrave" unicode="&#xf9;" horiz-adv-x="737" 
d="M334 796l56 -166l-189 166h133zM687 14v-14h-181v133c-32 -77 -113 -130 -195 -130c-99 0 -194 75 -194 175v375h-67v14h254v-14h-59v-453s12 -82 70 -87c86 2 168 66 191 153v387h-63v14h244v-14h-53v-539h53z" />
    <glyph glyph-name="umacron" unicode="&#x16b;" horiz-adv-x="737" 
d="M204 645h340v-14h-340v14zM687 14v-14h-181v133c-32 -77 -113 -130 -195 -130c-99 0 -194 75 -194 175v375h-67v14h254v-14h-59v-453s12 -82 70 -87c86 2 168 66 191 153v387h-63v14h244v-14h-53v-539h53z" />
    <glyph glyph-name="v" unicode="v" horiz-adv-x="726" 
d="M581 553l-167 -553h-137l-219 553h-63v14h254v-14h-54l209 -538l161 538h-118v14h254v-14h-120z" />
    <glyph glyph-name="w" unicode="w" horiz-adv-x="1069" 
d="M960 553l-169 -553h-141l-116 317l-120 -317h-141l-218 553h-60v14h254v-14h-54l210 -538l120 318l-77 220h-60v14h254v-14h-54l194 -537l163 537h-125v14h254v-14h-114z" />
    <glyph glyph-name="x" unicode="x" horiz-adv-x="644" 
d="M626 14h53v-14h-254v14h56l-145 219l-158 -219h126v-14h-254v14h114l166 229l-199 310h-59v14h254v-14h-46l130 -206l150 206h-120v14h254v-14h-120l-157 -216z" />
    <glyph glyph-name="y" unicode="y" horiz-adv-x="742" 
d="M298 -204h115v-14h-254v14h124l82 211l-251 546h-74v14h254l8 -7h-50l174 -395l147 388h-125v14h254v-14h-114z" />
    <glyph glyph-name="ydieresis" unicode="&#xff;" horiz-adv-x="742" 
d="M224 630c-27 0 -53 26 -53 53c0 26 26 52 53 52c26 0 52 -26 52 -52c0 -27 -26 -53 -52 -53zM414 630c-27 0 -53 26 -53 53c0 26 26 52 53 52c26 0 52 -26 52 -52c0 -27 -26 -53 -52 -53zM413 -204v-14h-254v14h124l82 211l-251 546h-74v14h254l8 -7h-50l174 -395
l147 388h-125v14h254v-14h-114l-290 -757h115z" />
    <glyph glyph-name="z" unicode="z" horiz-adv-x="666" 
d="M507 14c84 35 97 172 97 172h5v-186h-559l403 553h-297c-84 -35 -97 -172 -97 -172h-5v186h562l-403 -553h294z" />
    <glyph glyph-name="ntilde.001" horiz-adv-x="725" 
d="M493 707c0 -2 -13 -50 -55 -67c-10 -3 -20 -5 -31 -5c-29 0 -56 11 -85 32c-39 24 -72 31 -98 21c-34 -14 -45 -54 -45 -55l-16 4c1 2 13 49 55 66c32 13 71 5 117 -25c41 -28 73 -32 97 -22c34 13 45 54 45 55zM421 0v14h70v453s-2 82 -60 87c-86 -2 -163 -66 -186 -153
v-387h56v-14h-251v14h67v539h-67v14h195v-133c32 77 108 130 190 130c99 0 184 -75 184 -175v-375h56v-14h-254z" />
    <glyph glyph-name="ugrave.001" horiz-adv-x="737" 
d="M326 798l56 -166l-189 166h133zM687 14v-14h-181v133c-32 -77 -113 -130 -195 -130c-99 0 -194 75 -194 175v375h-67v14h254v-14h-59v-453s12 -82 70 -87c86 2 168 66 191 153v387h-63v14h244v-14h-53v-539h53z" />
    <glyph glyph-name="zero" unicode="0" horiz-adv-x="716" 
d="M676 392c0 -214 -133 -392 -318 -392c-182 0 -318 181 -318 392c0 221 139 391 318 391c188 0 318 -179 318 -391zM358 11c84 0 158 229 158 381c0 157 -76 380 -158 380c-84 0 -158 -221 -158 -380c0 -163 75 -381 158 -381z" />
    <glyph glyph-name="one" unicode="1" horiz-adv-x="380" 
d="M330 14v-14h-253v14h62v707l-84 -31l-5 13l217 80v-769h63z" />
    <glyph glyph-name="two" unicode="2" horiz-adv-x="653" 
d="M603 252v-252h-551l-2 -1v18l241 219c114 113 133 170 146 211c15 58 21 104 21 140c0 105 -58 159 -151 159c-180 0 -265 -190 -154 -287c46 -43 68 -38 65 17c-3 82 89 133 131 67c53 -80 -58 -186 -181 -118c-136 76 -90 218 -49 256c71 72 145 97 212 97
c100 0 185 -58 222 -106c143 -229 -213 -448 -213 -448l-145 -113c340 7 343 -30 390 80c9 35 12 61 12 61h6z" />
    <glyph glyph-name="three" unicode="3" horiz-adv-x="626" 
d="M264 394c-65 -16 -79 4 30 33c133 35 130 214 80 286c-11 16 -25 28 -43 33c-70 22 -134 9 -191 -36c-36 -28 -33 -51 5 -75c9 -6 19 -11 29 -17c25 -14 43 -32 39 -64c-3 -23 -15 -43 -40 -49c-32 -8 -62 -3 -84 24c-39 46 -31 128 17 178c46 48 105 65 169 67
c73 1 146 -8 209 -53c83 -61 85 -165 7 -232c-39 -32 -84 -49 -131 -69c35 -8 68 -17 100 -32c142 -70 158 -240 26 -327c-103 -68 -216 -81 -331 -32c-60 26 -95 74 -104 140c-8 64 38 117 95 111c29 -2 48 -17 56 -44c8 -26 -2 -47 -23 -63c-16 -11 -34 -20 -51 -30
c-30 -17 -30 -38 -11 -63c38 -48 144 -74 212 -52c53 18 92 77 94 148c1 45 4 90 -12 134c-27 73 -71 103 -147 84z" />
    <glyph glyph-name="four" unicode="4" horiz-adv-x="662" 
d="M478 14h58v-14h-254v14h68v180h-300v14s181 187 179 191c44 42 57 122 57 198c0 275 133 235 165 207c92 -79 -144 -365 -382 -596h281v175c139 58 119 184 119 184h9v-359h134v-14h-134v-180z" />
    <glyph glyph-name="five" unicode="5" horiz-adv-x="602" 
d="M137 567l-22 -165c21 16 39 28 55 38c104 66 371 18 391 -175c9 -89 -27 -157 -99 -204c-93 -61 -195 -77 -300 -33c-64 27 -102 77 -111 146c-10 69 48 125 108 107c24 -7 38 -22 43 -46c5 -23 -4 -41 -23 -54c-17 -12 -35 -23 -53 -34c-26 -16 -29 -37 -11 -60
c47 -60 102 -69 172 -60c55 7 84 46 99 96c22 68 19 138 8 207c-10 59 -36 108 -103 118c-70 10 -120 -10 -162 -70c-9 -12 -8 -12 -25 -42c-12 24 -6 43 -4 59l43 324c4 31 9 46 45 22c81 -53 171 -52 261 -24c39 12 63 44 89 77c2 -107 -91 -207 -198 -218
c-54 -5 -107 -4 -157 15c-26 9 -43 5 -46 -24z" />
    <glyph glyph-name="six" unicode="6" horiz-adv-x="643" 
d="M202 345c24 71 62 124 142 128c93 5 199 -57 232 -142c38 -99 12 -205 -68 -269c-128 -103 -319 -73 -402 69c-109 187 -56 495 145 609c64 36 131 51 204 37c98 -20 150 -121 104 -204c-21 -37 -58 -52 -97 -41c-23 7 -36 22 -40 45c-4 24 1 46 23 59c14 9 30 16 45 24
c16 9 35 15 34 38s-16 36 -34 46c-59 36 -146 26 -196 -24c-14 -14 -27 -29 -37 -46c-44 -69 -72 -239 -55 -329zM205 226c-1 -47 9 -93 27 -136c19 -48 54 -72 100 -69c45 2 70 25 84 78c23 91 23 184 -1 276c-9 38 -23 72 -69 78c-43 5 -82 -18 -106 -63
c-28 -51 -32 -107 -35 -164z" />
    <glyph glyph-name="seven" unicode="7" horiz-adv-x="593" 
d="M281 14h115v-14h-254v14h116l254 655h-364c-24 -7 -55 -26 -78 -81c-10 -36 -13 -63 -13 -63h-7v258h523z" />
    <glyph glyph-name="eight" unicode="8" horiz-adv-x="647" 
d="M597 212c0 -57 -29 -110 -81 -150c-51 -40 -120 -62 -193 -62c-72 0 -141 22 -192 62c-52 40 -81 93 -81 150s29 110 81 150c11 9 23 16 36 23c-18 16 -34 31 -47 51c-74 107 -62 233 30 298c45 32 103 49 166 49c62 0 121 -17 165 -49c45 -32 70 -75 70 -121
s-25 -89 -70 -121c-17 -13 -36 -23 -57 -30c101 -50 173 -151 173 -250zM536 613c0 86 -99 155 -220 155c-266 0 -172 -211 88 -297c78 24 132 78 132 142zM65 212c0 -108 116 -197 258 -197c90 0 188 36 188 108c0 65 -107 127 -275 215c-20 10 -39 23 -57 37
c-69 -36 -114 -95 -114 -163z" />
    <glyph glyph-name="nine" unicode="9" horiz-adv-x="645" 
d="M443 436c-24 -71 -62 -123 -142 -127c-93 -5 -200 56 -233 142c-39 98 -12 205 67 269c129 103 321 73 404 -69c109 -187 56 -494 -145 -608c-64 -36 -131 -51 -204 -37c-98 19 -150 121 -104 203c21 38 58 53 97 41c23 -7 36 -22 40 -44c4 -24 -1 -46 -23 -60l-45 -24
c-16 -8 -35 -14 -34 -38c1 -22 16 -35 33 -46c60 -35 147 -25 197 25c14 13 27 29 37 46c43 69 71 238 55 327zM440 556c1 47 -9 92 -27 136c-19 48 -55 72 -100 69s-70 -25 -84 -78c-23 -92 -23 -184 1 -276c9 -39 23 -73 69 -78c43 -5 82 18 106 62c27 52 32 108 35 165z
" />
    <glyph glyph-name="asterisk" unicode="*" horiz-adv-x="519" 
d="M444 590c-18 -7 -37 -7 -57 -7c-35 -1 -73 -8 -103 -16c-8 -2 -14 -3 -18 -3c3 -3 7 -6 12 -11c22 -23 51 -48 81 -67c17 -10 34 -20 45 -35c37 -39 -38 -92 -67 -55c-5 7 -9 14 -12 21c-12 27 -23 55 -34 83c-7 15 -15 31 -24 44c-4 6 -6 10 -8 14c-2 -4 -5 -8 -9 -14
c-9 -13 -17 -29 -23 -44c-12 -28 -22 -56 -34 -83l-12 -21c-32 -40 -102 17 -68 55c12 15 29 25 45 35c30 19 59 44 81 67c5 5 9 8 12 11c-4 0 -9 1 -16 3c-30 8 -68 15 -103 16c-20 0 -39 0 -57 7c-51 17 -14 99 30 82c7 -4 14 -7 21 -12c24 -17 48 -36 71 -54
c14 -10 29 -19 43 -26c6 -2 10 -5 14 -7c-1 4 -2 9 -2 15c-1 15 -5 33 -9 49c-9 29 -18 57 -25 86c-2 8 -4 16 -4 24c-2 51 89 51 87 -1c0 -19 -7 -37 -13 -56c-12 -33 -19 -71 -22 -102c-1 -7 -1 -12 -2 -16c3 3 8 5 15 8c14 7 29 16 43 26c23 18 47 37 71 54
c6 5 14 8 21 12c47 19 79 -66 30 -82z" />
    <glyph glyph-name="backslash" unicode="\" 
d="M480 -1l-430 743h17l430 -743h-17z" />
    <glyph glyph-name="colon" unicode=":" horiz-adv-x="263" 
d="M132 379c-42 0 -82 40 -82 82s40 81 82 81c41 0 81 -39 81 -81s-40 -82 -81 -82zM132 -1c-42 0 -82 40 -82 82c0 41 40 81 82 81c41 0 81 -40 81 -81c0 -42 -40 -82 -81 -82z" />
    <glyph glyph-name="comma" unicode="," horiz-adv-x="269" 
d="M86 -160c15 11 30 22 44 34c31 26 55 56 63 97c5 30 -7 40 -36 32c-2 0 -5 -2 -7 -2c-47 -16 -79 -4 -95 34c-14 35 0 75 32 91c41 19 91 7 112 -27c38 -62 21 -162 -39 -219c-21 -19 -41 -41 -74 -40z" />
    <glyph glyph-name="ellipsis" unicode="&#x2026;" horiz-adv-x="789" 
d="M133 1c-43 0 -83 40 -83 82c0 41 40 81 83 81c41 0 80 -40 80 -81c0 -42 -39 -82 -80 -82zM396 1c-43 0 -83 40 -83 82c0 41 40 81 83 81c41 0 80 -40 80 -81c0 -42 -39 -82 -80 -82zM659 1c-43 0 -83 40 -83 82c0 41 40 81 83 81c41 0 80 -40 80 -81
c0 -42 -39 -82 -80 -82z" />
    <glyph glyph-name="exclam" unicode="!" horiz-adv-x="269" 
d="M133 769c58 1 88 -31 86 -93c0 -48 -13 -94 -26 -140c-22 -84 -36 -179 -42 -258c-6 -83 -23 -83 -27 0c-2 39 -9 83 -18 124c-17 72 -34 143 -49 215c-4 20 -6 40 -7 60c-1 61 27 91 83 92zM135 162c41 0 81 -40 81 -81c0 -42 -40 -82 -81 -82c-42 0 -82 40 -82 82
c0 41 40 81 82 81z" />
    <glyph glyph-name="exclamdown" unicode="&#xa1;" horiz-adv-x="269" 
d="M134 404c-41 0 -81 40 -81 81c0 42 40 82 81 82c42 0 82 -40 82 -82c0 -41 -40 -81 -82 -81zM136 -203c-58 -1 -88 31 -86 93c0 48 13 94 26 140c22 84 36 179 42 258c6 83 23 83 27 0c2 -39 9 -83 18 -124c17 -72 34 -143 49 -215c4 -20 6 -40 7 -60
c1 -61 -27 -91 -83 -92z" />
    <glyph glyph-name="period" unicode="." horiz-adv-x="263" 
d="M133 -1c-43 0 -83 40 -83 82c0 41 40 81 83 81c41 0 80 -40 80 -81c0 -42 -39 -82 -80 -82z" />
    <glyph glyph-name="question" unicode="?" 
d="M487 696c68 -43 69 -119 11 -174c-25 -23 -54 -39 -83 -55c-96 -49 -151 -122 -140 -235c0 -13 -5 -20 -8 -23c-17 74 -15 144 33 206c20 26 41 49 61 75c83 104 41 235 -80 243c-59 3 -114 -5 -159 -47c-46 -43 -57 -111 -25 -164c13 -21 26 -29 40 -23
c25 15 23 71 71 71c31 0 63 -32 63 -63s-32 -63 -63 -63c-64 0 -118 39 -137 89c-29 74 1 157 78 191c116 51 232 39 338 -28zM267 162c41 0 80 -40 80 -81c0 -42 -39 -82 -80 -82c-43 0 -83 40 -83 82c0 41 40 81 83 81z" />
    <glyph glyph-name="questiondown" unicode="&#xbf;" 
d="M333 404c-41 0 -80 40 -80 81c0 42 39 82 80 82c43 0 83 -40 83 -82c0 -41 -40 -81 -83 -81zM113 -130c-68 43 -69 119 -11 174c25 23 54 39 83 55c96 49 151 122 140 235c0 13 5 20 8 23c17 -74 15 -144 -33 -206c-20 -26 -41 -49 -61 -75c-83 -104 -41 -235 80 -243
c59 -3 114 5 159 47c46 43 57 111 25 164c-13 21 -26 29 -40 23c-25 -15 -23 -71 -71 -71c-31 0 -63 32 -63 63s32 63 63 63c64 0 118 -39 137 -89c29 -74 -1 -157 -78 -191c-116 -51 -232 -39 -338 28z" />
    <glyph glyph-name="semicolon" unicode=";" horiz-adv-x="270" 
d="M135 373c-42 0 -82 40 -82 82c0 41 40 81 82 81c41 0 81 -40 81 -81c0 -42 -40 -82 -81 -82zM86 -155c34 -1 54 21 74 40c61 57 78 157 39 219c-21 34 -71 46 -111 27c-33 -16 -47 -56 -32 -91c16 -38 47 -50 94 -34c3 0 5 2 8 2c28 8 40 -2 35 -32
c-7 -41 -31 -71 -63 -97c-14 -12 -29 -23 -44 -34z" />
    <glyph glyph-name="slash" unicode="/" horiz-adv-x="547" 
d="M480 741h17l-430 -742h-17z" />
    <glyph glyph-name="underscore" unicode="_" horiz-adv-x="549" 
d="M50 0h449v-14h-449v14z" />
    <glyph glyph-name="braceleft" unicode="{" horiz-adv-x="267" 
d="M217 -201c-45 -13 -79 4 -93 45c-6 18 -6 38 -6 57c-2 304 11 331 -59 349c-5 2 -11 4 -9 11c1 6 7 7 12 9c36 10 50 37 53 71c3 326 -1 328 17 358c16 29 57 42 84 26c-73 0 -84 -28 -84 -121c-2 -292 11 -314 -54 -345c62 -29 56 -48 56 -377c1 -65 40 -83 83 -83z" />
    <glyph glyph-name="braceright" unicode="}" horiz-adv-x="267" 
d="M50 -201c43 0 82 18 83 83c0 329 -6 348 56 377c-65 31 -52 53 -54 345c0 93 -11 121 -84 121c27 16 68 3 84 -26c18 -30 14 -32 17 -358c3 -34 17 -61 53 -71c5 -2 11 -3 12 -9c2 -7 -4 -9 -9 -11c-70 -18 -57 -45 -59 -349c0 -19 0 -39 -6 -57c-14 -41 -48 -58 -93 -45
z" />
    <glyph glyph-name="parenleft" unicode="(" horiz-adv-x="248" 
d="M198 764c0 0 -21 -27 -46 -74c-23 -43 -55 -113 -76 -199c-23 -97 -28 -195 -15 -291c17 -119 63 -237 137 -349l-11 -8c-76 114 -123 234 -140 356c-13 98 -8 197 16 296c21 88 54 158 77 202c26 48 46 74 47 75z" />
    <glyph glyph-name="parenright" unicode=")" horiz-adv-x="248" 
d="M61 772c1 -1 21 -27 47 -75c23 -44 56 -114 77 -202c24 -99 29 -198 16 -296c-17 -122 -64 -242 -139 -356l-12 8c74 112 120 230 137 349c13 96 8 194 -15 291c-21 86 -53 156 -76 199c-25 47 -46 74 -46 74z" />
    <glyph glyph-name="emdash" unicode="&#x2014;" 
d="M-175 266h939v-14h-939v14z" />
    <glyph glyph-name="endash" unicode="&#x2013;" 
d="M14 256h569v-14h-569v14z" />
    <glyph glyph-name="hyphen" unicode="-" horiz-adv-x="329" 
d="M50 256h229v-14h-229v14z" />
    <glyph glyph-name="quotedblleft" unicode="&#x201c;" horiz-adv-x="473" 
d="M180 762l-43 -33c-30 -25 -54 -55 -61 -95c-5 -29 7 -39 35 -31c2 0 4 2 7 2c46 15 76 4 92 -33c14 -34 0 -73 -31 -89c-40 -18 -88 -7 -109 27c-37 60 -21 157 38 213c20 18 40 39 72 39zM388 762l-43 -33c-30 -25 -54 -55 -61 -95c-5 -29 7 -39 35 -31c2 0 4 2 6 2
c47 15 77 4 93 -33c14 -34 0 -73 -31 -89c-40 -18 -88 -7 -109 27c-38 60 -21 157 38 213c20 18 40 39 72 39z" />
    <glyph glyph-name="quotedblright" unicode="&#x201d;" horiz-adv-x="473" 
d="M85 474c15 11 29 22 43 34c31 24 54 54 61 94c6 29 -6 39 -34 31c-3 0 -5 -2 -7 -2c-46 -15 -77 -4 -92 33c-15 34 -1 73 31 89c39 19 88 7 108 -26c38 -61 21 -158 -38 -214c-20 -18 -39 -39 -72 -39zM293 474c15 11 29 22 43 34c31 24 54 54 61 94c6 29 -6 39 -34 31
c-3 0 -5 -2 -7 -2c-46 -15 -77 -4 -93 33c-14 34 0 73 32 89c39 19 88 7 108 -26c38 -61 21 -158 -38 -214c-20 -18 -39 -39 -72 -39z" />
    <glyph glyph-name="quoteleft" unicode="&#x2018;" horiz-adv-x="265" 
d="M180 762l-43 -33c-30 -25 -54 -55 -61 -95c-5 -29 7 -39 35 -31c2 0 4 2 6 2c47 15 77 4 93 -33c14 -34 0 -73 -31 -89c-40 -18 -88 -7 -109 27c-38 60 -21 157 38 213c20 18 40 39 72 39z" />
    <glyph glyph-name="quoteright" unicode="&#x2019;" horiz-adv-x="265" 
d="M85 474c15 11 29 22 43 34c31 24 54 54 61 94c6 29 -6 39 -34 31c-3 0 -5 -2 -7 -2c-46 -15 -77 -4 -92 33c-15 34 -1 73 31 89c39 19 88 7 108 -26c38 -61 21 -158 -38 -214c-20 -18 -39 -39 -72 -39z" />
    <glyph glyph-name="dollar" unicode="$" horiz-adv-x="587" 
d="M300 428c6 -3 13 -6 18 -8c128 -43 225 -81 229 -216c1 -35 -9 -61 -15 -71c-63 -115 -155 -142 -232 -140v-86h-13v86c-71 5 -125 32 -125 32c-73 40 -67 54 -102 -31v228h6s3 -24 11 -54c50 -118 135 -164 210 -168v290c-6 3 -12 6 -17 8c-122 36 -232 85 -230 216
c-1 35 9 61 15 70c63 116 155 143 232 141v80h13v-81c71 -5 125 -32 125 -32c73 -39 67 -54 102 32v-229h-6s-3 24 -12 54c-49 118 -134 165 -209 168v-289zM287 718c-31 -1 -60 -9 -83 -22c-183 -93 -23 -211 83 -262v284zM300 0c31 0 60 8 83 22c181 91 19 208 -83 261
v-283z" />
    <glyph glyph-name="Euro" unicode="&#x20ac;" horiz-adv-x="661" 
d="M246 297c18 -138 89 -249 136 -282c10 -2 19 -2 28 -2c67 0 129 31 178 81h17c-52 -59 -120 -95 -195 -95c-142 0 -261 129 -285 298h-85l9 14h74l-3 51l2 45h-82l9 14h75c22 176 142 308 286 308c78 0 149 -38 201 -102h-17c-49 55 -113 88 -184 88c-9 0 -18 0 -28 -2
c-48 -33 -120 -147 -137 -292h265l-8 -14h-258l-2 -45l2 -51h266l-8 -14h-256z" />
    <glyph glyph-name="divide" unicode="&#xf7;" horiz-adv-x="619" 
d="M310 390c-34 0 -66 32 -66 66c0 33 32 65 66 65c33 0 65 -32 65 -65c0 -34 -32 -66 -65 -66zM569 280h-519v-14h519v14zM310 25c-34 0 -66 32 -66 66c0 33 32 65 66 65c33 0 65 -32 65 -65c0 -34 -32 -66 -65 -66z" />
    <glyph glyph-name="equal" unicode="=" 
d="M45 341h519v-14h-519v14zM45 171h519v-14h-519v14z" />
    <glyph glyph-name="greater" unicode="&#x3e;" horiz-adv-x="583" 
d="M50 454l5 13l478 -202l-478 -203l-5 13l447 190z" />
    <glyph glyph-name="less" unicode="&#x3c;" 
d="M88 274l447 -190l-5 -13l-478 203l478 202l5 -13z" />
    <glyph glyph-name="minus" unicode="&#x2212;" 
d="M45 251h519v-14h-519v14z" />
    <glyph glyph-name="multiply" unicode="&#xd7;" 
d="M492 415l-177 -177l178 -179l-10 -11l-179 179l-179 -179l-11 11l179 179l-177 177l10 11l178 -177l177 177z" />
    <glyph glyph-name="percent" unicode="%" horiz-adv-x="845" 
d="M633 740h15l-429 -740h-15zM220 739c93 0 169 -83 169 -185s-76 -185 -169 -185c-94 0 -170 83 -170 185s76 185 170 185zM220 373c2 0 5 0 7 1c16 4 31 22 43 51c14 34 21 80 21 129s-7 94 -21 129c-12 29 -27 47 -43 51h-7h-8c-16 -4 -31 -22 -43 -51
c-14 -35 -21 -80 -21 -129s7 -95 21 -129c12 -29 27 -47 43 -51c2 -1 5 -1 8 -1zM625 373c94 0 170 -83 170 -186c0 -102 -76 -185 -170 -185c-93 0 -169 83 -169 185c0 103 76 186 169 186zM625 6h8c16 5 31 23 43 52c14 34 21 80 21 129s-7 95 -21 130
c-12 29 -27 47 -43 52h-8h-7c-16 -5 -31 -23 -43 -52c-14 -35 -21 -81 -21 -130s7 -95 21 -129c12 -29 27 -47 43 -52h7z" />
    <glyph glyph-name="plus" unicode="+" horiz-adv-x="599" 
d="M559 302h-251v-253h-15v253h-253v15h253v251h15v-251h251v-15z" />
    <glyph glyph-name="ampersand" unicode="&#x26;" horiz-adv-x="922" 
d="M557 294c6 10 12 19 18 28c28 42 51 63 73 79c114 80 237 -39 149 -122c-54 -49 -132 -3 -123 49c0 46 -15 70 -104 -46c-1 -1 0 -8 1 -10c48 -51 77 -101 132 -138c11 -11 23 -20 38 -25c33 -12 69 1 88 30c10 12 18 32 25 50c1 3 3 6 4 9c15 -3 17 -4 12 -19
c-15 -44 -32 -85 -61 -122c-43 -47 -94 -69 -163 -57c-26 6 -65 26 -86 49l-79 87c-199 -299 -580 -37 -369 174c45 45 84 73 127 95c11 5 21 9 33 14c-9 28 -18 36 -25 45c-115 141 -46 313 128 317c15 1 32 0 66 -5c42 -13 85 -50 88 -111c4 -67 -30 -100 -123 -181z
M450 545c50 57 50 165 5 198c-53 28 -127 15 -140 -40c-5 -22 -3 -43 2 -63c19 -50 56 -89 78 -144zM287 405c-189 -159 2 -363 102 -312c30 20 62 32 76 57z" />
    <glyph glyph-name="at" unicode="@" horiz-adv-x="732" 
d="M527 -14c-45 -26 -96 -42 -151 -42c-95 0 -199 39 -267 107c-68 64 -99 165 -99 258s41 183 110 248c70 67 160 107 255 107c96 0 186 -46 259 -107c140 -111 110 -465 -91 -465h-10c-97 0 -133 70 -133 70c-10 36 -21 9 -24 5c-42 -85 -104 -70 -103 -71
c-179 32 -128 219 -127 220c58 191 190 221 244 221c60 0 71 -66 71 -66c16 64 4 52 57 52c71 0 50 23 -34 -347c-26 -103 92 -74 116 -60c85 39 102 137 108 196c0 116 -22 171 -86 236s-155 101 -247 101s-179 -36 -245 -101c-67 -65 -104 -150 -104 -239
c0 -90 27 -184 94 -249c66 -65 164 -101 256 -101c52 0 96 16 143 38zM421 294c78 270 -84 318 -162 44c-36 -110 -27 -210 20 -226c42 -14 106 67 142 182z" />
    <glyph glyph-name="bar" unicode="|" horiz-adv-x="901" 
d="M661 342c73 -83 73 -234 -51 -306c-58 -33 -120 -47 -173 -49c-99 -2 -186 12 -268 50c-79 29 -133 109 -130 187c4 77 45 134 112 165c50 35 100 48 164 55c-31 6 -64 14 -88 24c-106 47 -88 145 -43 201c39 37 84 56 134 69c60 12 119 12 166 -13
c66 -31 87 -96 61 -149c-27 -60 -142 -71 -180 -25c-17 15 -31 34 -39 55c-9 29 7 71 43 80c25 12 71 -7 81 -35c26 -82 -115 -102 -11 -116c30 -5 91 17 102 57c10 31 5 70 -17 94c-58 60 -161 53 -200 -12c-23 -59 -17 -142 -4 -176c16 -55 85 -41 88 -54
c0 -19 -93 8 -125 -68c-49 -97 -49 -196 12 -297c22 -40 70 -61 111 -67c71 -10 137 5 201 41c82 49 106 144 66 221c-43 75 -193 115 -255 44c-20 -23 -29 -54 -29 -95c0 -29 9 -64 27 -83c30 -16 61 -33 85 -28c79 12 -58 71 -10 143c30 26 75 32 110 13
c25 -29 31 -75 12 -108c-141 -177 -375 54 -191 258c122 120 500 -36 435 200c-13 54 -78 82 -123 82c-21 0 -40 -12 -40 -27c-3 -51 66 -38 62 -98c-3 -41 -45 -69 -77 -67c-41 2 -69 35 -69 77c0 44 6 65 31 93c217 167 440 -302 20 -336z" />
    <glyph glyph-name="trademark" unicode="&#x2122;" horiz-adv-x="1657" 
d="M665 590c0 0 -11 127 -86 158h-157v-734h47v-14h-220v14h48v734h-158c-75 -31 -86 -158 -86 -158h-4v172h620v-172h-4zM1583 14v-14h-225v14h55v724l-180 -694h-118l-224 703v-733h110v-14h-214v14h93v735h-93v13h223l213 -712l185 712h175v-14h-47v-734h47z" />
    <glyph glyph-name="acute" unicode="&#xb4;" 
d="M223 617l56 166h133z" />
    <glyph glyph-name="caron" unicode="&#x2c7;" 
d="M171 759l108 -115l109 115h20l-129 -137l-128 137h20z" />
    <glyph glyph-name="cedilla" unicode="&#xb8;" 
d="M285 -42c7 1 14 2 21 2c47 0 86 -39 86 -89c0 -48 -39 -88 -86 -88c-22 0 -43 9 -58 23v4c15 -14 35 -23 58 -23h8c16 9 32 44 32 84c0 42 -16 76 -32 85c-3 1 -5 1 -8 1c-23 0 -43 -9 -58 -24l40 67h22z" />
    <glyph glyph-name="circumflex" unicode="&#x2c6;" 
d="M388 622l-108 115l-109 -115h-20l129 137l128 -137h-20z" />
    <glyph glyph-name="dieresis" unicode="&#xa8;" 
d="M205 598c-27 0 -53 26 -53 53c0 26 26 52 53 52c26 0 52 -26 52 -52c0 -27 -26 -53 -52 -53zM395 598c-27 0 -53 26 -53 53c0 26 26 52 53 52c26 0 52 -26 52 -52c0 -27 -26 -53 -52 -53z" />
    <glyph glyph-name="grave" unicode="`" 
d="M326 783l56 -166l-189 166h133z" />
    <glyph glyph-name="macron" unicode="&#xaf;" 
d="M135 645h340v-14h-340v14z" />
    <glyph glyph-name="tilde" unicode="&#x2dc;" 
d="M456 707c0 -2 -13 -50 -55 -67c-10 -3 -20 -5 -31 -5c-29 0 -56 11 -85 32c-39 24 -72 31 -98 21c-34 -14 -45 -54 -45 -55l-16 4c1 2 13 49 55 66c32 13 71 5 117 -25c41 -28 73 -32 97 -22c34 13 45 54 45 55z" />
    <glyph glyph-name="space" unicode=" " horiz-adv-x="450" 
 />
    <glyph glyph-name="aa" 
d="M537 300c63 -72 63 -199 -47 -261c-47 -26 -98 -37 -151 -39c-77 -2 -153 10 -224 40c-68 28 -116 97 -113 164c3 66 39 112 95 143c43 24 89 37 142 44c-29 6 -53 14 -77 24c-90 36 -76 123 -35 168c31 34 72 49 115 59c49 11 97 11 144 -10c55 -25 76 -81 50 -130
c-27 -50 -120 -61 -158 -17c-10 10 -20 25 -28 46c-9 25 7 60 32 69c25 10 60 -7 70 -32c26 -71 -93 -84 -11 -97c30 -5 80 15 91 46c10 30 5 59 -17 83c-47 49 -139 43 -167 -12c-23 -48 -17 -120 -4 -154c16 -44 74 -30 77 -43c0 -19 -82 8 -112 -57
c-40 -86 -40 -172 10 -255c22 -37 59 -54 100 -59c60 -8 115 4 168 35c71 41 95 122 58 188c-35 64 -163 104 -214 44c-20 -23 -29 -54 -29 -84c0 -29 9 -55 27 -72c19 -16 50 -31 74 -27c66 11 -58 60 -10 122c19 24 64 30 88 11c25 -19 31 -64 12 -88
c-119 -153 -320 45 -158 216c100 109 424 -25 369 178c-12 43 -67 69 -104 69c-18 0 -37 -10 -37 -25c-3 -41 56 -31 53 -86c-2 -31 -36 -59 -67 -57s-59 35 -59 66c0 41 6 57 31 82c184 143 376 -258 16 -292z" />
    </font>
</defs>
</svg>
